<svg id="Layer_1" data-name="Layer 1" xmlns="http://www.w3.org/2000/svg" xmlns:xlink="http://www.w3.org/1999/xlink" viewBox="0 0 2359.63 372.41">
  <defs>
    <style>
      .cls-1 {
        fill: none;
      }

      .cls-2 {
        isolation: isolate;
      }

      .cls-3 {
        clip-path: url(#clip-path);
      }

      .cls-4 {
        fill: #ff1a42;
      }

      .cls-5 {
        clip-path: url(#clip-path-2);
      }

      .cls-6 {
        clip-path: url(#clip-path-3);
      }
    </style>
    <clipPath id="clip-path" transform="translate(77.07 748.5)">
      <path class="cls-1" d="M2164-746.74c118.77,0,232.52,38.15,287.64,103.75,77.19,91.88,10.13,202.88-149.78,247.94l-2224-.66c159.92-45.06,227-156.06,149.78-247.94C172.52-709.25,58.76-747.37-60-747.4Z"/>
    </clipPath>
    <clipPath id="clip-path-2" transform="translate(77.07 748.5)">
      <path class="cls-1" d="M-68.19-382.37c47.91,0,96.62-6,142.67-18.73l2239.49.65c-46,12.73-94.77,18.75-142.67,18.74Z"/>
    </clipPath>
    <clipPath id="clip-path-3" transform="translate(77.07 748.5)">
      <path class="cls-1" d="M-80.23-748.56l2239.49.65c-47.91,0-96.62,6-142.67,18.74C1855.56-684.66,1788-575,1865.76-484.22c55.5,64.82,170,102.47,289.65,102.51l-2239.49-.66c-119.59,0-234.14-37.69-289.64-102.5-77.73-90.77-10.21-200.44,150.82-245C-176.84-742.55-128.13-748.58-80.23-748.56Z"/>
    </clipPath>
  </defs>
  <g class="cls-2">
    <g class="cls-2">
      <g class="cls-3">
        <g>
          <path class="cls-4" d="M1670.73-747.41c221.81,8.75,232.86,282.13-55.8,370.54l177.39.07c319-103.88,252.81-367.91,55.81-370.54l-177.4-.07" transform="translate(77.07 748.5)"/>
          <path class="cls-4" d="M1288.72-747.41c220.21,8.76,231.18,282.67-55.4,371.25l176.11.07c316.73-104.08,251-368.62,55.41-371.25l-176.12-.07" transform="translate(77.07 748.5)"/>
          <path class="cls-4" d="M935.2-747.12c217.82,8.76,228.67,282.45-54.8,371l174.2.07c313.28-104,248.27-368.33,54.81-371l-174.21-.07" transform="translate(77.07 748.5)"/>
          <path class="cls-4" d="M562.19-747.23c212.12,8.76,222.68,282.53-53.36,371.07l169.64.07c305.07-104,241.76-368.44,53.37-371.07l-169.65-.07" transform="translate(77.07 748.5)"/>
          <path class="cls-4" d="M162.46-747.34c227.9,8.67,245.2,270.42-51.26,359.88L107.14-386l178.11.07C607.36-487.21,540.51-744.71,341.6-747.27l-179.14-.07" transform="translate(77.07 748.5)"/>
        </g>
      </g>
    </g>
    <g class="cls-2">
      <g class="cls-5">
        <g>
          <path class="cls-4" d="M2060-398.83c-55,10.95-94.47,17.67-177.57,18.72l223.79.07c54.26-.95,98.31-2.75,171.34-17.38q2.49-.66,5-1.35L2060-398.83" transform="translate(77.07 748.5)"/>
          <path class="cls-4" d="M1673.19-398.83c-55,10.95-94.47,17.67-177.57,18.72l223.79.07c66.4-1.16,105.75-4,177.58-18.73l-223.8-.06" transform="translate(77.07 748.5)"/>
          <path class="cls-4" d="M1295-399.06c-55,10.95-94.47,17.68-177.57,18.73l223.79.06c66.4-1.16,105.75-4,177.58-18.72l-223.8-.07" transform="translate(77.07 748.5)"/>
          <path class="cls-4" d="M941.19-399.28c-55.05,9.95-94.47,16.06-177.57,17l223.79.06c66.4-1.06,105.75-3.66,177.58-17l-223.8-.06" transform="translate(77.07 748.5)"/>
          <path class="cls-4" d="M559.42-395.92c-55,8-94.47,12.9-177.58,13.67l223.8.05c66.39-.85,105.74-2.94,177.57-13.67l-223.79-.05" transform="translate(77.07 748.5)"/>
          <path class="cls-4" d="M138.91-396.63c-55,8-94.47,12.91-177.57,13.67l223.79,0c66.4-.85,105.75-2.93,177.58-13.67l-223.8-.05" transform="translate(77.07 748.5)"/>
        </g>
      </g>
    </g>
    <g class="cls-2">
      <g class="cls-6">
        <g>
          <path class="cls-4" d="M1898-381.79c-491.31-8.81-562.34-330.28-279.53-363.9A319.59,319.59,0,0,1,1657.7-748l223.77.06c-377.76,10.9-253.5,318.07,146.11,361.18,28.74,3.1,64.83,5.05,94.18,5.09l-223.8-.07" transform="translate(77.07 748.5)"/>
          <path class="cls-4" d="M1515.47-381.9c-491.31-8.81-562.34-330.29-279.53-363.91a323.88,323.88,0,0,1,39.27-2.36l223.77.07C1121.21-737.2,1245.47-430,1645.09-386.93c28.74,3.11,64.83,5.06,94.17,5.1l-223.79-.07" transform="translate(77.07 748.5)"/>
          <path class="cls-4" d="M1133-382C641.66-390.82,570.63-712.3,853.45-745.92a321.5,321.5,0,0,1,39.26-2.36l223.78.07C738.72-737.31,863-430.14,1262.59-387c28.75,3.1,64.83,5.05,94.18,5.09L1133-382" transform="translate(77.07 748.5)"/>
          <path class="cls-4" d="M750.48-382.12C259.16-390.93,188.14-712.41,471-746a321.72,321.72,0,0,1,39.27-2.36l223.77.07c-377.76,10.9-253.5,318.07,146.11,361.17,28.74,3.1,64.83,5,94.18,5.09l-223.8-.06" transform="translate(77.07 748.5)"/>
          <path class="cls-4" d="M368-382.23C-123.33-391-194.37-712.52,88.44-746.14a321.5,321.5,0,0,1,39.26-2.36l223.8.06C-26.26-737.53,98-430.36,497.61-387.26c28.74,3.1,64.83,5.05,94.17,5.09L368-382.23" transform="translate(77.07 748.5)"/>
        </g>
      </g>
    </g>
  </g>
</svg>
